# xmcd CD database file
#
# Track frame offsets:
#	151
#	24234
#	54273
#	73709
#	97564
#	113837
#	138659
#	161910
#	181907
#
# Disc length: 2691 seconds
#
# Revision: 0
# Processed by: cddbd v1.5.1PL0 Copyright (c) Steve Scherf et al.
# Submitted via: CDex 1.51
#
DISCID=6d0a8109
DTITLE=Crosby, Stills, Nash, and Young - Lost and Found
DYEAR=1900
DGENRE=Rock
TTITLE0=For What It Worth
TTITLE1=Long Time Gone
TTITLE2=Another Day In Paradise
TTITLE3=No Tears Left
TTITLE4=Looking Forward
TTITLE5=Out Of Control
TTITLE6=Try To Find Me
TTITLE7=Carry On
TTITLE8=Long May You Run
EXTD=
EXTT0=
EXTT1=
EXTT2=
EXTT3=
EXTT4=
EXTT5=
EXTT6=
EXTT7=
EXTT8=
PLAYORDER=
